<?xml version="1.0" encoding="utf-8"?>
<!-- Generator: Adobe Illustrator 22.1.0, SVG Export Plug-In . SVG Version: 6.00 Build 0)  -->
<svg version="1.1" id="Layer_2" xmlns="http://www.w3.org/2000/svg" xmlns:xlink="http://www.w3.org/1999/xlink" x="0px" y="0px"
	 viewBox="0 0 451 160" style="enable-background:new 0 0 451 160;" xml:space="preserve">
<style type="text/css">
	.st0{fill:#DEECF1;}
	.st1{fill:#A7E0F9;}
	.st2{fill:#3E4357;}
	.st3{fill:#CE153F;}
	.st4{fill:#F7FEFB;}
	.st5{fill:#484D5E;}
	.st6{fill:#20A6C9;}
	.st7{fill:#1F2124;}
</style>
<g>
	<rect x="21.9" y="151.4" class="st0" width="197.2" height="5.1"/>
	<rect x="237.1" y="151.4" class="st0" width="183.7" height="5.1"/>
	<path class="st1" d="M258.2,29.6c0-4.8-2.9-8.8-7.1-10.4c-1.1-5.1-5.5-8.8-10.9-8.8c-1.9,0-3.6,0.5-5.2,1.3c-1.7-4.1-5.7-7-10.4-7
		c-5.3,0-9.7,3.7-10.9,8.6c-1.2-4.9-5.6-8.6-10.9-8.6c-6.2,0-11.2,5-11.2,11.2c0,4.1,2.2,7.6,5.4,9.6c-0.1,0.5-0.1,1-0.1,1.6
		c0,2.1,0.6,4.2,1.7,5.9c-1.1,1.7-1.7,3.7-1.7,5.9c0,5.7,4.3,10.4,9.9,11.1c0.4,3.5,2.4,6.5,5.3,8.3c-0.7,1.5-1.2,3.2-1.2,5
		c0,4,2.1,7.5,5.2,9.4c-0.5,1.1-0.8,2.3-0.8,3.5c0,3.6,2.3,6.7,5.6,7.9c-0.1,0.5-0.2,1-0.2,1.5c0,3.3,2.7,6,6,6c3.3,0,6-2.7,6-6
		c0-1.8-0.8-3.5-2.1-4.6c0.1-0.2,0.2-0.3,0.3-0.5c5.2-1,9-5.5,9-11c0-2.9-1.1-5.5-2.9-7.5c4.6-1.4,7.9-5.6,7.9-10.7
		c0-0.1,0-0.2,0-0.4c2.6-2.1,4.3-5.2,4.3-8.8c0-0.5,0-1-0.1-1.4C254.3,39.5,258.2,35,258.2,29.6z"/>
	<polygon class="st2" points="226.2,132.1 217.2,142.1 31.3,145.5 13.1,143.4 7.4,135.5 38.5,111.3 145.4,105 214.8,114.7 	"/>
	<path class="st3" d="M163,136l-97.8,0c0,0,0.3-21.4-20.1-21.9c-20.4-0.5-19.3,20.9-19.3,20.9l0.1,3.5c0,0-14.4-1.2-18.5-3.1
		c0,0-1.5-2.8-2.1-5.5s-0.2-8.5-0.2-8.5l3.4-2.3c0,0-1.3-13.2,0.8-18c0,0-2.1-5.1-1.5-8.2l23.3-26.6c0,0,66.9-15.9,99.5-2.1
		c34.3,14.5,45.5,23.3,45.5,23.3s32.9,5.5,43.8,12.9c4.4,3.6,7.3,8.6,8.3,12.5l-2.1,19.2l-20.7,1.6c0,0-1-19-19-20.5
		C171.3,112,164.5,121.5,163,136z"/>
	
		<ellipse transform="matrix(0.9997 -2.240070e-02 2.240070e-02 0.9997 -2.9809 4.1683)" class="st2" cx="184.6" cy="135.1" rx="18.6" ry="17.9"/>
	
		<ellipse transform="matrix(0.9997 -2.240095e-02 2.240095e-02 0.9997 -3.0373 1.0458)" class="st2" cx="45.2" cy="136.1" rx="18.6" ry="17.9"/>
	
		<ellipse transform="matrix(0.9997 -2.239693e-02 2.239693e-02 0.9997 -3.026 1.0455)" class="st4" cx="45.2" cy="135.6" rx="11.2" ry="10.7"/>
	
		<ellipse transform="matrix(0.9997 -2.247700e-02 2.247700e-02 0.9997 -3.0368 1.0493)" class="st2" cx="45.2" cy="135.6" rx="5.5" ry="5.3"/>
	
		<ellipse transform="matrix(0.9997 -2.236699e-02 2.236699e-02 0.9997 -2.9871 4.1621)" class="st4" cx="184.6" cy="135.6" rx="11.2" ry="10.7"/>
	<path class="st3" d="M8.7,104l217.5,2.7c-1-1.2,4.8-5.3,3.5-6.4c-4.4-3-23.5-16.6-23.5-16.6l-29.9,3.9c0,0-11.2-8.8-45.5-23.3
		c-32.6-13.8-99.5,2.1-99.5,2.1L7.9,93c-0.6,3.1,1.5,8.2,1.5,8.2C9.1,101.9,8.9,102.9,8.7,104z"/>
	<path class="st4" d="M29.2,95c0,0-15.3-9.4-21.1-1.8c0,0-1.5,4.2,1.8,8.5l14.4-0.4L29.2,95z"/>
	<path class="st4" d="M223.4,110.4c0,0-2.8-11.5-26.8-11.7l10.5,8.7C207,107.5,220.4,113.6,223.4,110.4z"/>
	<path class="st2" d="M45.2,72.6c0,0,11-7,43.9-8.3l3.7,26.6l-36-0.9C56.8,89.9,46,84.9,45.2,72.6z"/>
	<path class="st2" d="M95,63.6c0,0,41.7-3.5,79.7,30.3l-75.9-3L95,63.6z"/>
	<path class="st3" d="M161.6,90c0.8-1.9-4.1-9.4-9.7-8.8c-1.4,0.1-4.3,4.8,0.5,7.4C156.5,90.9,160.7,92,161.6,90z"/>
	<path class="st2" d="M179.1,135.7c0.1,2.9,2.6,5.2,5.6,5.1c3-0.1,5.4-2.5,5.4-5.4c-0.1-2.9-2.6-5.2-5.6-5.1
		S179.1,132.8,179.1,135.7z"/>
	<polygon class="st5" points="76.5,65.1 62.2,90.1 75.7,90.5 89,64.2 	"/>
	<polygon class="st5" points="136.4,70.7 125.5,92 135.7,92.4 145,74.3 	"/>
	<path class="st4" d="M121,104.5h-12.9c-0.8,0-1.5-0.7-1.5-1.5v-2.6c0-0.8,0.7-1.5,1.5-1.5H121c0.8,0,1.5,0.7,1.5,1.5v2.6
		C122.5,103.8,121.8,104.5,121,104.5z"/>
	<path class="st4" d="M74.8,104.5H61.9c-0.8,0-1.5-0.7-1.5-1.5v-2.6c0-0.8,0.7-1.5,1.5-1.5h12.9c0.8,0,1.5,0.7,1.5,1.5v2.6
		C76.4,103.8,75.7,104.5,74.8,104.5z"/>
	<polygon class="st2" points="225.9,132.1 234.9,142.1 420.8,145.5 439,143.4 444.7,135.5 413.7,111.3 306.8,105 237.4,114.7 	"/>
	<path class="st6" d="M289.1,136l97.8,0c0,0-0.3-21.4,20.1-21.9c20.4-0.5,19.3,20.9,19.3,20.9l-0.1,3.5c0,0,14.4-1.2,18.5-3.1
		c0,0,1.5-2.8,2.1-5.5s0.2-8.5,0.2-8.5l-3.4-2.3c0,0,1.3-13.2-0.8-18c0,0,2.1-5.1,1.5-8.2L421,66.3c0,0-66.9-15.9-99.5-2.1
		C287.2,78.7,276,87.5,276,87.5s-32.9,5.5-43.8,12.9c-4.4,3.6-7.3,8.6-8.3,12.5l2.1,19.2l20.7,1.6c0,0,1-19,19-20.5
		C280.8,112,287.7,121.5,289.1,136z"/>
	
		<ellipse transform="matrix(2.242084e-02 -0.9997 0.9997 2.242084e-02 126.4382 399.5908)" class="st2" cx="267.5" cy="135.1" rx="17.9" ry="18.6"/>
	
		<ellipse transform="matrix(2.240119e-02 -0.9997 0.9997 2.240119e-02 261.8047 539.9262)" class="st2" cx="407" cy="136.1" rx="17.9" ry="18.6"/>
	
		<ellipse transform="matrix(2.238789e-02 -0.9997 0.9997 2.238789e-02 262.2637 539.4606)" class="st4" cx="407" cy="135.6" rx="10.7" ry="11.2"/>
	
		<ellipse transform="matrix(2.247711e-02 -0.9997 0.9997 2.247711e-02 262.2289 539.4471)" class="st2" cx="407" cy="135.6" rx="5.3" ry="5.5"/>
	
		<ellipse transform="matrix(2.238791e-02 -0.9997 0.9997 2.238791e-02 125.9792 400.0628)" class="st4" cx="267.6" cy="135.6" rx="10.7" ry="11.2"/>
	<path class="st6" d="M443.4,104l-217.5,2.7c1-1.2-4.8-5.3-3.5-6.4c4.4-3,23.5-16.6,23.5-16.6l29.9,3.9c0,0,11.2-8.8,45.5-23.3
		c32.6-13.8,99.5,2.1,99.5,2.1L444.2,93c0.6,3.1-1.5,8.2-1.5,8.2C443,101.9,443.3,102.9,443.4,104z"/>
	<path class="st4" d="M423,95c0,0,15.3-9.4,21.1-1.8c0,0,1.5,4.2-1.8,8.5l-14.4-0.4L423,95z"/>
	<path class="st4" d="M228.8,110.4c0,0,2.8-11.5,26.8-11.7l-10.5,8.7C245.1,107.5,231.7,113.6,228.8,110.4z"/>
	<path class="st2" d="M407,72.6c0,0-11-7-43.9-8.3l-3.7,26.6l36-0.9C395.4,89.9,406.1,84.9,407,72.6z"/>
	<path class="st2" d="M357.1,63.6c0,0-41.7-3.5-79.7,30.3l75.9-3L357.1,63.6z"/>
	<path class="st7" d="M299.5,91.4c0,0-3.1-7.5,0-11.1c-5.6,3.3-11.9,8-15.8,11.7L299.5,91.4z"/>
	<path class="st7" d="M290.7,90.2c0,0,4.2-7.4,9.7-8.9c1.7,0.1,5,6.7-0.7,9.6C292.9,94.2,290.7,90.2,290.7,90.2z"/>
	<path class="st6" d="M290.6,90c-0.8-1.9,4.1-9.4,9.7-8.8c1.4,0.1,4.3,4.8-0.5,7.4C295.7,90.9,291.4,92,290.6,90z"/>
	
		<ellipse transform="matrix(2.247711e-02 -0.9997 0.9997 2.247711e-02 125.9565 400.0499)" class="st2" cx="267.6" cy="135.6" rx="5.3" ry="5.5"/>
	<polygon class="st5" points="375.7,65.1 389.9,90.1 376.4,90.5 363.1,64.2 	"/>
	<polygon class="st5" points="315.7,70.7 326.6,92 316.4,92.4 307.1,74.3 	"/>
	<path class="st4" d="M331.2,104.5h12.9c0.8,0,1.5-0.7,1.5-1.5v-2.6c0-0.8-0.7-1.5-1.5-1.5h-12.9c-0.8,0-1.5,0.7-1.5,1.5v2.6
		C329.6,103.8,330.3,104.5,331.2,104.5z"/>
	<path class="st4" d="M377.3,104.5h12.9c0.8,0,1.5-0.7,1.5-1.5v-2.6c0-0.8-0.7-1.5-1.5-1.5h-12.9c-0.8,0-1.5,0.7-1.5,1.5v2.6
		C375.8,103.8,376.5,104.5,377.3,104.5z"/>
</g>
</svg>
